<svg width="20" height="57" viewBox="0 0 20 57" fill="none" xmlns="http://www.w3.org/2000/svg">
<rect width="20" height="57" fill="none"/>
<g>
<path d="M3.05406 12.3672C4.75913 6.74633 5.61166 3.93587 8.2651 1.96793C10.9185 0 14.1671 0 20.6643 0H224.693C230.611 0 233.57 0 236.112 1.7236C238.654 3.4472 239.632 5.90384 241.589 10.8171C243.859 16.5186 246.041 23.4587 245.999 29C245.96 34.2749 243.84 40.8545 241.625 46.3099C239.654 51.1636 238.669 53.5904 236.137 55.2952C233.605 57 230.668 57 224.794 57H20.5731C14.1143 57 10.885 57 8.23786 55.0471C5.59074 53.0942 4.7312 50.3115 3.01211 44.746C1.42884 39.6202 0.0292647 33.7611 0.00047011 29C-0.0299476 23.9705 1.42019 17.7535 3.05406 12.3672Z" fill="url(#paint0_linear_4001_492)"/>
<path d="M3.05406 12.3672C4.75913 6.74633 5.61166 3.93587 8.2651 1.96793C10.9185 0 14.1671 0 20.6643 0H224.693C230.611 0 233.57 0 236.112 1.7236C238.654 3.4472 239.632 5.90384 241.589 10.8171C243.859 16.5186 246.041 23.4587 245.999 29C245.96 34.2749 243.84 40.8545 241.625 46.3099C239.654 51.1636 238.669 53.5904 236.137 55.2952C233.605 57 230.668 57 224.794 57H20.5731C14.1143 57 10.885 57 8.23786 55.0471C5.59074 53.0942 4.7312 50.3115 3.01211 44.746C1.42884 39.6202 0.0292647 33.7611 0.00047011 29C-0.0299476 23.9705 1.42019 17.7535 3.05406 12.3672Z" fill="url(#paint1_radial_4001_492)" fill-opacity="0.2"/>
<path d="M20.6643 0.25H224.693C227.658 0.25 229.86 0.250409 231.639 0.463673C233.41 0.675949 234.743 1.09751 235.972 1.93051C238.437 3.60234 239.391 5.97413 241.356 10.9096C243.625 16.6075 245.79 23.5088 245.749 28.9981C245.71 34.2223 243.607 40.7642 241.394 46.2159C239.414 51.0914 238.453 53.4342 235.997 55.0878C234.773 55.9118 233.447 56.3287 231.689 56.5387C229.922 56.7496 227.737 56.75 224.794 56.75H20.5731C17.3375 56.75 14.9337 56.7495 13.0072 56.5078C11.0894 56.2672 9.66515 55.7894 8.38628 54.8459C5.81908 52.952 4.97825 50.2642 3.25097 44.6722C1.66931 39.5516 0.279029 33.7215 0.250466 28.9985C0.220285 24.0082 1.66096 17.821 3.29329 12.4398C5.00653 6.79198 5.84076 4.07721 8.41403 2.16874C9.69591 1.21802 11.1263 0.736534 13.0545 0.494038C14.9913 0.250453 17.4095 0.25 20.6643 0.25Z" stroke="url(#paint2_linear_4001_492)" stroke-width="0.5"/>
</g>
<defs>
<filter id="filter0_d_4001_492" x="-23" y="-19" width="292" height="103" filterUnits="userSpaceOnUse" color-interpolation-filters="sRGB">
<feFlood flood-opacity="0" result="BackgroundImageFix"/>
<feColorMatrix in="SourceAlpha" type="matrix" values="0 0 0 0 0 0 0 0 0 0 0 0 0 0 0 0 0 0 127 0" result="hardAlpha"/>
<feOffset dy="4"/>
<feGaussianBlur stdDeviation="11.5"/>
<feComposite in2="hardAlpha" operator="out"/>
<feColorMatrix type="matrix" values="0 0 0 0 0.494118 0 0 0 0 0.443137 0 0 0 0 0.686275 0 0 0 0.61 0"/>
<feBlend mode="normal" in2="BackgroundImageFix" result="effect1_dropShadow_4001_492"/>
<feBlend mode="normal" in="SourceGraphic" in2="effect1_dropShadow_4001_492" result="shape"/>
</filter>
<linearGradient id="paint0_linear_4001_492" x1="117" y1="1.70717e-08" x2="111.191" y2="65" gradientUnits="userSpaceOnUse">
<stop stop-color="#9C85EE"/>
<stop offset="1" stop-color="#7663BB"/>
</linearGradient>
<radialGradient id="paint1_radial_4001_492" cx="0" cy="0" r="1" gradientUnits="userSpaceOnUse" gradientTransform="translate(127.693 57) rotate(-90) scale(57 142.684)">
<stop stop-color="#523E98"/>
<stop offset="1" stop-color="white"/>
</radialGradient>
<linearGradient id="paint2_linear_4001_492" x1="84.5021" y1="1.5" x2="85.301" y2="62.006" gradientUnits="userSpaceOnUse">
<stop stop-color="#E8E2FF"/>
<stop offset="1" stop-color="#685B93"/>
</linearGradient>
</defs>
</svg>
