<svg width="20" height="57" viewBox="0 0 20 57" fill="none" xmlns="http://www.w3.org/2000/svg">
<rect width="20" height="57" fill="none"/>
<g>
<path d="M-222.946 12.3672C-221.241 6.74633 -220.388 3.93587 -217.735 1.96793C-215.081 0 -211.833 0 -205.336 0H-1.30723C4.61121 0 7.57042 0 10.1121 1.7236C12.6537 3.4472 13.632 5.90384 15.5887 10.8171C17.8592 16.5186 20.0409 23.4587 19.9994 29C19.96 34.2749 17.8404 40.8545 15.6252 46.3099C13.6544 51.1636 12.669 53.5904 10.1368 55.2952C7.60463 57 4.66772 57 -1.20608 57H-205.427C-211.886 57 -215.115 57 -217.762 55.0471C-220.409 53.0942 -221.269 50.3115 -222.988 44.746C-224.571 39.6202 -225.971 33.7611 -226 29C-226.03 23.9705 -224.58 17.7535 -222.946 12.3672Z" fill="url(#paint0_linear_4001_492)"/>
<path d="M-222.946 12.3672C-221.241 6.74633 -220.388 3.93587 -217.735 1.96793C-215.081 0 -211.833 0 -205.336 0H-1.30723C4.61121 0 7.57042 0 10.1121 1.7236C12.6537 3.4472 13.632 5.90384 15.5887 10.8171C17.8592 16.5186 20.0409 23.4587 19.9994 29C19.96 34.2749 17.8404 40.8545 15.6252 46.3099C13.6544 51.1636 12.669 53.5904 10.1368 55.2952C7.60463 57 4.66772 57 -1.20608 57H-205.427C-211.886 57 -215.115 57 -217.762 55.0471C-220.409 53.0942 -221.269 50.3115 -222.988 44.746C-224.571 39.6202 -225.971 33.7611 -226 29C-226.03 23.9705 -224.58 17.7535 -222.946 12.3672Z" fill="url(#paint1_radial_4001_492)" fill-opacity="0.2"/>
<path d="M-205.336 0.25H-1.30722C1.65781 0.25 3.85989 0.250409 5.63896 0.463673C7.40979 0.675949 8.74339 1.09751 9.97176 1.93051C12.437 3.60234 13.3909 5.97413 15.3564 10.9096C17.6255 16.6075 19.7905 23.5088 19.7494 28.9981C19.7104 34.2223 17.6072 40.7642 15.3936 46.2159C13.4139 51.0914 12.4533 53.4342 9.99718 55.0878C8.77338 55.9118 7.44743 56.3287 5.68884 56.5387C3.92203 56.7496 1.73662 56.75 -1.20607 56.75H-205.427C-208.662 56.75 -211.066 56.7495 -212.993 56.5078C-214.911 56.2672 -216.335 55.7894 -217.614 54.8459C-220.181 52.952 -221.022 50.2642 -222.749 44.6722C-224.331 39.5516 -225.721 33.7215 -225.75 28.9985C-225.78 24.0082 -224.339 17.821 -222.707 12.4398C-220.993 6.79198 -220.159 4.07721 -217.586 2.16874C-216.304 1.21802 -214.874 0.736534 -212.946 0.494038C-211.009 0.250453 -208.59 0.25 -205.336 0.25Z" stroke="url(#paint2_linear_4001_492)" stroke-width="0.5"/>
</g>
<defs>
<filter id="filter0_d_4001_492" x="-249" y="-19" width="292" height="103" filterUnits="userSpaceOnUse" color-interpolation-filters="sRGB">
<feFlood flood-opacity="0" result="BackgroundImageFix"/>
<feColorMatrix in="SourceAlpha" type="matrix" values="0 0 0 0 0 0 0 0 0 0 0 0 0 0 0 0 0 0 127 0" result="hardAlpha"/>
<feOffset dy="4"/>
<feGaussianBlur stdDeviation="11.5"/>
<feComposite in2="hardAlpha" operator="out"/>
<feColorMatrix type="matrix" values="0 0 0 0 0.494118 0 0 0 0 0.443137 0 0 0 0 0.686275 0 0 0 0.61 0"/>
<feBlend mode="normal" in2="BackgroundImageFix" result="effect1_dropShadow_4001_492"/>
<feBlend mode="normal" in="SourceGraphic" in2="effect1_dropShadow_4001_492" result="shape"/>
</filter>
<linearGradient id="paint0_linear_4001_492" x1="-118" y1="1.70717e-08" x2="-114.809" y2="65" gradientUnits="userSpaceOnUse">
<stop stop-color="#9C85EE"/>
<stop offset="1" stop-color="#7663BB"/>
</linearGradient>
<radialGradient id="paint1_radial_4001_492" cx="0" cy="0" r="1" gradientUnits="userSpaceOnUse" gradientTransform="translate(-98.3073 57) rotate(-90) scale(57 142.684)">
<stop stop-color="#523E98"/>
<stop offset="1" stop-color="white"/>
</radialGradient>
<linearGradient id="paint2_linear_4001_492" x1="-141.498" y1="1.5" x2="-140.699" y2="62.006" gradientUnits="userSpaceOnUse">
<stop stop-color="#E8E2FF"/>
<stop offset="1" stop-color="#685B93"/>
</linearGradient>
</defs>
</svg>
