<svg width="126" height="36" viewBox="0 0 126 36" fill="none" xmlns="http://www.w3.org/2000/svg">
<path d="M119.111 35.6934C116.711 35.6934 115.031 34.9734 114.071 33.5334C113.128 32.0934 112.657 29.6579 112.657 26.2268V17.1601H110.817V13.4534L113.964 12.4668L116.684 6.25342H121.377V12.4668H125.751V17.1601H121.297V27.0801C121.297 28.5023 121.502 29.4445 121.911 29.9068C122.32 30.369 122.951 30.6001 123.804 30.6001C124.177 30.6001 124.515 30.5556 124.817 30.4668C125.12 30.3779 125.368 30.2534 125.564 30.0934V33.7201C125.297 33.9868 124.951 34.2534 124.524 34.5201C124.097 34.769 123.386 35.0268 122.391 35.2934C121.413 35.5601 120.32 35.6934 119.111 35.6934Z" fill="#C384C5"/>
<path d="M103.907 35.1331H95.2934V17.8798L93.6934 16.8931V13.8798L99.4267 12.4665H101.587L102.36 18.8131C103.089 14.4576 105.427 12.2798 109.373 12.2798C109.818 12.2798 110.28 12.3598 110.76 12.5198L109.853 22.0131C109.48 21.6753 108.662 21.5065 107.4 21.5065C105.587 21.5065 104.422 21.9865 103.907 22.9465V35.1331Z" fill="#C384C5"/>
<path d="M80.3884 32.4931C81.1706 32.4931 81.7662 32.1731 82.175 31.5331C82.6017 30.8753 82.815 29.9775 82.815 28.8398V20.4131C82.815 16.9464 81.9973 15.2131 80.3617 15.2131C79.5973 15.2131 79.0017 15.5242 78.575 16.1464C78.1484 16.7687 77.935 17.6487 77.935 18.7864V27.4531C77.935 30.8131 78.7528 32.4931 80.3884 32.4931ZM80.175 35.6931C76.1039 35.6931 73.1262 34.7687 71.2417 32.9198C69.3573 31.0709 68.415 28.1198 68.415 24.0664C68.415 20.0487 69.3661 17.0264 71.2684 14.9998C73.1706 12.9553 76.2639 11.9331 80.5484 11.9331C84.7261 11.9331 87.7395 12.9109 89.5884 14.8664C91.455 16.8042 92.3884 19.7464 92.3884 23.6931C92.3884 27.782 91.4017 30.8042 89.4284 32.7598C87.4728 34.7153 84.3884 35.6931 80.175 35.6931Z" fill="#C384C5"/>
<path d="M66.9989 32.9202L66.7589 33.2135C66.5811 33.3913 66.2789 33.6224 65.8522 33.9069C65.4433 34.1735 64.9455 34.4491 64.3589 34.7335C63.79 35.0002 63.0255 35.2224 62.0655 35.4002C61.1055 35.5958 60.0744 35.6935 58.9722 35.6935C56.6433 35.6935 54.6522 35.3113 52.9989 34.5469C51.3455 33.7646 50.0477 32.6358 49.1055 31.1602C48.1811 29.6669 47.5144 27.9869 47.1055 26.1202C46.6966 24.2358 46.4922 22.058 46.4922 19.5869C46.4922 16.9558 46.6966 14.6891 47.1055 12.7869C47.5144 10.8669 48.19 9.18687 49.1322 7.74687C50.0922 6.28909 51.4077 5.19576 53.0789 4.46687C54.75 3.73798 56.7855 3.37354 59.1855 3.37354C60.2877 3.37354 61.3189 3.47131 62.2789 3.66687C63.2566 3.86242 64.0211 4.08464 64.5722 4.33353C65.1411 4.58242 65.6477 4.86687 66.0922 5.18687C66.5544 5.50687 66.8389 5.72909 66.9455 5.85353C67.07 5.97798 67.1589 6.07576 67.2122 6.14687L66.8122 12.2802H62.7589L61.3722 9.10687C61.0522 9.01798 60.7855 8.97353 60.5722 8.97353C59.3811 8.97353 58.4655 9.24909 57.8255 9.8002C57.1855 10.3335 56.6966 11.3913 56.3589 12.9735C56.0211 14.538 55.8522 16.7958 55.8522 19.7469C55.8522 21.5069 55.9589 23.0446 56.1722 24.3602C56.4033 25.6758 56.6789 26.6891 56.9989 27.4002C57.3189 28.0935 57.7011 28.6535 58.1455 29.0802C58.59 29.5069 58.99 29.7824 59.3455 29.9069C59.7011 30.0135 60.0833 30.0669 60.4922 30.0669C61.3989 30.0669 62.35 29.9602 63.3455 29.7469C64.3411 29.5158 65.1589 29.1691 65.7989 28.7069L66.9989 32.9202Z" fill="#C384C5"/>
<path d="M38.5638 35.6934C36.1638 35.6934 34.4838 34.9734 33.5238 33.5334C32.5816 32.0934 32.1105 29.6579 32.1105 26.2268V17.1601H30.2705V13.4534L33.4172 12.4668L36.1372 6.25342H40.8305V12.4668H45.2038V17.1601H40.7505V27.0801C40.7505 28.5023 40.9549 29.4445 41.3638 29.9068C41.7727 30.369 42.4038 30.6001 43.2572 30.6001C43.6305 30.6001 43.9683 30.5556 44.2705 30.4668C44.5727 30.3779 44.8216 30.2534 45.0172 30.0934V33.7201C44.7505 33.9868 44.4038 34.2534 43.9772 34.5201C43.5505 34.769 42.8394 35.0268 41.8438 35.2934C40.8661 35.5601 39.7727 35.6934 38.5638 35.6934Z" fill="black"/>
<path d="M20.059 35.1328V17.8795L18.459 16.8928V14.0395L24.1923 12.4662H28.6457V35.1328H20.059ZM23.9257 10.0128L19.5523 5.61282V4.67949L23.9257 0.306152H24.939L29.499 4.67949V5.61282L24.939 10.0128H23.9257Z" fill="black"/>
<path d="M8.82667 35.1337H0V3.88037H17.6V10.6804L8.82667 10.147V17.4004H16.0267V24.0137L8.82667 23.4804V35.1337Z" fill="black"/>
</svg>
