<svg width="78" height="59" viewBox="0 0 78 59" fill="none" xmlns="http://www.w3.org/2000/svg">
<path d="M24.1563 6.91842L1.15627 30.1694C0.41549 30.9183 0 31.9291 0 32.9824V55C0 57.2091 1.79086 59 4 59H27C29.2091 59 31 57.2091 31 55V9.73145C31 6.15736 26.6698 4.37748 24.1563 6.91842Z" fill="#C384C5"/>
<path d="M71.1106 7.19678L49.1105 30.1782C48.3978 30.9227 48 31.9136 48 32.9442V55C48 57.2091 49.7909 59 52 59H74C76.2091 59 78 57.2091 78 55V9.96284C78 6.357 73.604 4.59205 71.1106 7.19678Z" fill="#C384C5"/>
</svg>
